<?xml version="1.0" encoding="utf-8"?>
<!DOCTYPE svg PUBLIC "-//W3C//DTD SVG 20010904//EN" "http://www.w3.org/TR/2001/REC-SVG-20010904/DTD/svg10.dtd">
<svg version="1.0" xmlns="http://www.w3.org/2000/svg" width="1424pt" height="340pt" viewBox="0 0 1424 340" style="" preserveAspectRatio="xMidYMid meet">
<g fill="#006837FF" stroke="#006837FF">
<path d="M 1216.000 28.668 C 1191.652 32.523 1172.927 39.755 1153.453 52.825 C 1126.002 71.248 1105.253 100.489 1096.548 133.020 C 1095.154 138.226 1093.247 148.753 1092.309 156.412 C 1090.701 169.550 1090.701 171.110 1092.320 183.965 C 1096.066 213.721 1105.117 236.059 1122.526 258.513 C 1141.782 283.349 1172.282 302.188 1205.075 309.500 C 1216.435 312.034 1243.170 312.629 1255.793 310.629 C 1301.096 303.454 1340.726 274.471 1361.256 233.500 C 1381.073 193.953 1381.073 146.047 1361.256 106.500 C 1344.056 72.175 1314.057 46.493 1277.313 34.638 C 1261.909 29.668 1250.406 27.982 1233.000 28.140 C 1225.025 28.213 1217.375 28.450 1216.000 28.668 M 1311.195 85.529 C 1312.113 87.544 1311.999 89.161 1310.634 93.491 C 1307.433 103.648 1296.112 113.331 1281.349 118.541 C 1274.683 120.893 1273.671 120.959 1243.500 121.001 C 1215.459 121.040 1212.109 121.222 1208.401 122.905 C 1198.362 127.465 1195.943 140.781 1203.789 148.297 L 1206.531 150.925 1241.570 151.212 L 1276.609 151.500 1284.199 155.253 C 1303.162 164.628 1315.000 183.246 1315.000 203.694 C 1315.000 225.644 1299.509 246.754 1278.110 253.963 C 1272.449 255.870 1269.648 256.000 1234.188 256.000 C 1199.209 256.000 1195.879 255.851 1190.631 254.045 C 1175.612 248.878 1162.768 238.725 1159.669 229.572 C 1157.595 223.447 1157.576 221.566 1159.571 219.571 C 1160.955 218.188 1166.725 217.999 1207.821 217.994 C 1236.283 217.991 1255.925 217.593 1258.150 216.975 C 1262.836 215.673 1267.753 210.632 1269.056 205.792 C 1270.409 200.768 1268.727 194.573 1264.996 190.842 L 1262.154 188.000 1229.233 188.000 C 1198.892 188.000 1195.857 187.843 1190.486 185.995 C 1174.002 180.324 1162.631 168.588 1156.797 151.226 C 1152.062 137.137 1153.224 125.195 1160.732 110.758 C 1164.656 103.215 1175.163 92.510 1182.244 88.842 C 1193.118 83.209 1193.876 83.148 1254.271 83.071 L 1310.043 83.000 1311.195 85.529 "/></g>
<g fill="#006837FF" stroke="#006837FF">
<path d="M 404.086 194.717 C 396.122 197.530 388.983 206.950 389.006 214.616 C 389.019 219.052 391.425 224.506 395.153 228.550 C 400.800 234.676 405.885 236.142 422.172 236.341 C 435.126 236.498 435.307 236.532 437.272 239.163 C 440.237 243.134 439.007 246.669 434.240 247.874 C 432.183 248.393 418.125 248.972 403.000 249.159 L 375.500 249.500 375.000 231.659 C 374.517 214.431 374.419 213.754 372.151 211.919 C 366.708 207.517 351.091 205.013 341.467 207.000 C 333.842 208.574 329.429 210.868 324.799 215.665 C 319.507 221.148 317.998 225.493 318.009 235.218 C 318.018 242.515 318.363 244.100 320.914 248.548 C 326.298 257.934 334.730 262.022 350.500 262.893 L 361.500 263.500 361.146 266.500 C 360.652 270.690 358.595 274.322 355.006 277.341 C 350.429 281.193 344.326 282.001 330.294 280.612 L 322.088 279.800 321.451 282.650 C 321.101 284.217 320.629 286.199 320.402 287.052 C 319.680 289.776 322.334 291.702 328.417 292.867 C 341.808 295.432 355.271 293.188 363.706 286.985 C 368.571 283.407 372.788 275.644 373.830 268.350 L 374.522 263.500 404.511 262.906 C 428.207 262.437 435.734 261.961 440.380 260.635 C 443.613 259.713 446.602 258.746 447.021 258.487 C 447.440 258.228 449.969 259.025 452.641 260.258 C 456.805 262.179 459.144 262.493 469.000 262.458 C 479.078 262.421 481.282 262.092 486.824 259.794 L 493.148 257.173 498.282 259.836 C 502.735 262.146 504.617 262.500 512.458 262.500 C 520.489 262.500 522.064 262.187 526.542 259.704 L 531.584 256.908 536.542 259.704 C 540.954 262.192 542.493 262.500 550.521 262.500 C 558.666 262.500 560.179 262.186 566.101 259.271 C 570.319 257.194 573.077 255.126 573.830 253.474 C 574.607 251.768 575.000 243.713 575.000 229.488 C 575.000 209.336 574.886 208.009 573.066 207.035 C 570.206 205.505 565.365 205.778 563.571 207.571 C 562.257 208.886 562.000 212.149 562.000 227.546 L 562.000 245.949 558.750 247.673 C 554.134 250.122 545.404 250.003 540.992 247.430 L 537.500 245.394 537.000 232.947 L 536.500 220.500 530.750 220.200 L 525.000 219.900 525.000 232.295 C 525.000 246.369 524.722 246.956 517.091 248.988 C 512.336 250.255 507.221 249.683 502.785 247.389 L 500.000 245.949 499.985 234.224 C 499.976 227.776 499.596 221.912 499.140 221.192 C 498.580 220.310 496.553 219.985 492.905 220.192 L 487.500 220.500 487.000 232.973 C 486.518 244.991 486.410 245.491 484.046 246.668 C 479.809 248.775 468.874 250.130 463.000 249.277 L 457.500 248.477 456.916 242.489 C 456.233 235.484 454.479 231.758 449.707 227.172 C 445.283 222.921 441.547 222.117 425.092 221.879 C 413.563 221.712 411.427 221.427 409.842 219.842 C 407.108 217.108 407.477 212.557 410.635 210.073 C 413.030 208.188 414.612 208.000 428.030 208.000 C 440.030 208.000 444.016 207.621 449.352 205.973 C 456.609 203.732 463.000 198.655 463.000 195.132 C 463.000 193.006 462.920 193.000 435.750 193.079 C 413.774 193.143 407.646 193.460 404.086 194.717 M 358.866 220.431 L 362.056 222.080 361.778 235.790 L 361.500 249.500 352.000 249.426 C 341.430 249.344 337.973 248.134 333.659 243.006 C 327.038 235.138 330.972 222.653 341.155 219.214 C 345.566 217.725 354.868 218.363 358.866 220.431 "/></g>
<g fill="#FFFFFFFF" stroke="#FFFFFFFF">
<path d="M 1221.227 169.209 L 1221.500 187.500 1240.205 187.115 C 1261.877 186.668 1264.945 187.416 1267.809 193.839 C 1269.665 198.001 1270.214 205.642 1268.845 208.253 C 1267.322 211.160 1262.192 215.977 1259.551 216.981 C 1258.136 217.519 1237.038 217.948 1210.385 217.980 C 1164.666 218.037 1158.447 218.297 1159.566 220.107 C 1159.870 220.598 1159.672 221.000 1159.127 221.000 C 1157.983 221.000 1158.285 224.376 1159.753 228.000 C 1160.310 229.375 1160.566 230.838 1160.324 231.250 C 1160.081 231.663 1160.385 232.000 1161.000 232.000 C 1161.615 232.000 1161.869 232.403 1161.565 232.895 C 1161.260 233.388 1161.688 234.050 1162.515 234.367 C 1163.342 234.685 1163.921 235.294 1163.802 235.722 C 1163.499 236.814 1169.560 243.000 1170.933 243.000 C 1171.554 243.000 1172.322 243.675 1172.638 244.500 C 1172.955 245.325 1173.841 246.000 1174.607 246.000 C 1175.373 246.000 1176.000 246.477 1176.000 247.059 C 1176.000 247.641 1176.450 247.840 1177.000 247.500 C 1177.550 247.160 1178.000 247.260 1178.000 247.722 C 1178.000 248.585 1183.909 251.364 1185.250 251.130 C 1185.663 251.059 1186.000 251.477 1186.000 252.059 C 1186.000 252.641 1186.419 252.859 1186.931 252.543 C 1187.443 252.226 1188.149 252.432 1188.500 253.000 C 1188.851 253.568 1189.526 253.793 1190.000 253.500 C 1190.474 253.207 1191.132 253.405 1191.463 253.940 C 1191.794 254.475 1192.725 254.659 1193.532 254.349 C 1194.339 254.040 1195.000 254.278 1195.000 254.880 C 1195.000 256.418 1271.874 256.350 1273.729 254.810 C 1274.455 254.208 1275.334 254.000 1275.682 254.349 C 1276.031 254.697 1276.920 254.481 1277.658 253.869 C 1278.396 253.256 1279.007 253.148 1279.015 253.628 C 1279.024 254.107 1279.361 253.982 1279.765 253.350 C 1280.169 252.717 1281.400 252.042 1282.500 251.850 C 1283.600 251.657 1285.095 250.938 1285.821 250.250 C 1286.548 249.563 1287.786 249.000 1288.571 249.000 C 1289.357 249.000 1290.000 248.550 1290.000 248.000 C 1290.000 247.450 1290.450 247.000 1291.000 247.000 C 1291.550 247.000 1292.857 246.213 1293.905 245.250 C 1294.952 244.288 1297.004 242.671 1298.464 241.658 C 1299.924 240.645 1301.531 238.733 1302.035 237.408 C 1302.538 236.084 1303.412 235.000 1303.975 235.000 C 1304.539 235.000 1305.000 234.325 1305.000 233.500 C 1305.000 232.675 1305.450 232.000 1306.000 232.000 C 1306.550 232.000 1307.000 231.357 1307.000 230.571 C 1307.000 229.786 1307.707 228.436 1308.571 227.571 C 1309.436 226.707 1309.870 226.000 1309.536 226.000 C 1309.203 226.000 1309.492 224.988 1310.179 223.750 C 1310.867 222.513 1311.445 221.200 1311.465 220.833 C 1311.484 220.467 1311.806 219.860 1312.181 219.486 C 1312.556 219.111 1312.620 218.173 1312.324 217.402 C 1312.028 216.631 1312.314 216.000 1312.960 216.000 C 1313.703 216.000 1313.887 215.218 1313.460 213.875 C 1313.050 212.583 1313.171 211.988 1313.768 212.357 C 1314.384 212.738 1314.750 209.433 1314.750 203.482 C 1314.750 198.267 1314.337 194.000 1313.831 194.000 C 1313.326 194.000 1313.004 193.438 1313.117 192.750 C 1313.229 192.063 1312.764 190.150 1312.084 188.500 C 1311.404 186.850 1310.786 184.713 1310.711 183.750 C 1310.636 182.788 1310.194 182.000 1309.728 182.000 C 1309.263 182.000 1309.138 181.586 1309.450 181.081 C 1309.763 180.575 1309.361 179.504 1308.557 178.700 C 1307.753 177.896 1307.374 176.960 1307.714 176.619 C 1308.055 176.279 1307.808 176.000 1307.167 176.000 C 1306.525 176.000 1306.000 175.325 1306.000 174.500 C 1306.000 173.675 1305.550 173.000 1305.000 173.000 C 1304.450 173.000 1304.000 172.571 1304.000 172.048 C 1304.000 170.920 1294.250 161.000 1293.141 161.000 C 1292.721 161.000 1291.505 160.213 1290.439 159.250 C 1288.742 157.719 1281.860 153.978 1279.750 153.441 C 1279.338 153.336 1278.775 153.138 1278.500 153.000 C 1278.225 152.863 1277.588 152.694 1277.083 152.625 C 1276.579 152.556 1275.869 152.202 1275.505 151.839 C 1275.142 151.475 1262.719 151.119 1247.899 151.048 L 1220.955 150.919 1221.227 169.209 "/></g>
<g fill="#006837FF" stroke="#006837FF">
<path d="M 925.145 206.325 C 924.454 207.158 923.944 214.678 923.773 226.563 L 923.500 245.475 920.714 246.809 C 914.908 249.590 904.429 250.042 852.000 249.774 L 798.500 249.500 798.000 231.167 C 797.540 214.306 797.339 212.717 795.500 211.373 C 791.485 208.439 782.674 206.558 773.000 206.569 C 764.947 206.578 762.661 206.967 757.994 209.123 C 746.951 214.224 741.678 222.470 741.671 234.649 C 741.667 240.421 742.195 242.879 744.411 247.408 C 749.437 257.680 758.063 262.115 774.364 262.806 L 785.228 263.266 784.687 267.297 C 783.699 274.664 778.403 279.583 770.033 280.906 C 764.985 281.704 753.520 280.904 749.857 279.499 C 747.120 278.448 744.863 281.775 745.199 286.365 C 745.639 292.379 748.402 293.453 763.500 293.479 C 777.262 293.503 782.459 291.837 789.332 285.201 C 794.189 280.511 795.862 277.291 797.424 269.631 L 798.675 263.500 857.587 262.967 C 918.073 262.420 919.561 262.322 927.297 258.340 C 929.866 257.018 930.640 257.127 936.797 259.676 C 942.835 262.176 944.690 262.454 955.500 262.476 C 966.310 262.498 968.134 262.233 973.896 259.807 L 980.292 257.114 985.396 259.798 C 989.830 262.129 991.681 262.483 999.500 262.491 C 1007.370 262.499 1009.150 262.158 1013.676 259.779 L 1018.852 257.058 1023.525 259.670 C 1032.246 264.544 1047.201 263.687 1056.865 257.759 C 1062.366 254.384 1063.000 251.469 1063.000 229.532 C 1063.000 211.333 1062.863 209.863 1061.000 208.000 C 1058.699 205.699 1052.829 205.296 1051.146 207.324 C 1050.459 208.152 1049.944 215.536 1049.773 227.019 L 1049.500 245.390 1046.002 247.432 C 1041.662 249.965 1032.940 250.064 1028.250 247.633 L 1025.000 245.949 1025.000 234.556 C 1025.000 228.290 1024.727 222.452 1024.393 221.582 C 1023.935 220.387 1022.344 220.000 1017.893 220.000 L 1012.000 220.000 1012.000 233.051 L 1012.000 246.102 1008.598 247.524 C 1002.874 249.915 997.894 250.140 992.500 248.251 L 987.500 246.500 987.000 233.500 L 986.500 220.500 980.500 220.500 L 974.500 220.500 974.220 233.231 L 973.941 245.961 968.341 247.589 C 961.725 249.513 944.189 249.157 939.750 247.009 L 937.000 245.679 937.000 227.274 C 937.000 216.499 936.571 208.067 935.965 206.934 C 935.185 205.478 933.857 205.000 930.587 205.000 C 928.199 205.000 925.750 205.596 925.145 206.325 M 782.838 220.416 L 786.000 222.051 785.985 234.776 C 785.976 241.774 785.577 248.120 785.097 248.878 C 783.685 251.106 767.602 249.929 762.355 247.213 C 758.056 244.987 754.000 238.672 754.000 234.205 C 754.000 227.796 759.198 221.061 765.791 218.929 C 769.670 217.674 779.132 218.500 782.838 220.416 "/></g>
<g fill="#006837FF" stroke="#006837FF">
<path d="M 635.176 61.049 C 615.565 65.005 605.000 80.217 605.000 104.500 C 605.000 119.439 608.086 128.971 615.484 136.879 C 624.124 146.116 639.584 150.291 651.481 146.601 L 656.463 145.056 659.481 147.908 C 663.546 151.749 666.210 153.000 670.318 153.000 C 673.067 153.000 674.493 152.197 677.344 149.041 C 681.210 144.762 684.583 135.413 683.497 131.990 L 682.855 129.969 680.293 131.984 C 678.841 133.126 676.225 134.000 674.258 134.000 C 671.333 134.000 670.904 133.724 671.533 132.250 C 676.877 119.734 677.360 117.545 677.430 105.500 C 677.508 92.138 675.611 84.508 670.018 75.689 C 663.375 65.215 647.530 58.557 635.176 61.049 M 646.967 67.626 C 651.080 71.086 653.663 76.343 655.619 85.228 C 657.647 94.444 657.913 113.454 656.137 122.250 L 654.774 129.000 650.887 129.000 C 646.480 129.000 646.251 129.486 649.000 133.000 C 651.589 136.309 651.502 137.149 648.250 140.242 C 637.321 150.637 626.946 137.033 625.322 110.177 C 624.228 92.085 627.669 75.534 633.883 69.002 C 638.536 64.111 642.317 63.713 646.967 67.626 "/></g>
<g fill="#6BA78BFF" stroke="#6BA78BFF">
<path d="M 1195.000 84.583 C 1180.686 88.359 1167.730 98.339 1161.354 110.500 C 1157.814 117.252 1154.000 130.234 1154.000 135.530 C 1154.000 140.392 1157.562 153.208 1160.776 159.911 C 1162.379 163.253 1166.280 168.345 1170.478 172.577 C 1181.791 183.977 1192.152 187.968 1210.500 187.989 L 1221.500 188.002 1221.209 169.721 L 1220.918 151.439 1213.971 151.832 C 1207.179 152.216 1206.948 152.148 1203.602 148.802 C 1192.347 137.547 1200.254 121.000 1216.886 121.000 L 1223.000 121.000 1223.000 102.000 L 1223.000 83.000 1211.750 83.066 C 1205.333 83.103 1198.137 83.755 1195.000 84.583 "/></g>
<g fill="#006837FF" stroke="#006837FF">
<path d="M 273.981 61.372 C 265.857 63.100 259.053 67.052 254.357 72.768 C 248.014 80.491 245.795 87.370 245.238 101.035 C 244.691 114.470 245.861 121.402 250.111 129.907 C 253.599 136.886 258.246 141.283 265.954 144.899 C 270.641 147.097 272.895 147.500 280.500 147.500 C 288.105 147.500 290.359 147.097 295.046 144.899 C 302.595 141.358 307.102 137.162 310.792 130.239 C 314.863 122.601 316.139 116.581 316.150 104.953 C 316.173 82.572 308.056 68.379 292.000 62.724 C 285.490 60.431 280.253 60.038 273.981 61.372 M 287.452 68.380 C 298.471 80.064 299.625 122.521 289.346 138.054 C 282.240 148.792 271.442 143.495 267.029 127.106 C 262.667 110.908 264.323 83.945 270.401 72.191 C 274.429 64.402 282.086 62.691 287.452 68.380 "/></g>
<g fill="#006837FF" stroke="#006837FF">
<path d="M 95.500 53.228 C 80.477 58.670 72.980 75.702 78.457 91.950 C 80.976 99.426 87.556 106.316 94.744 109.005 C 99.747 110.877 101.577 111.010 113.954 110.397 L 127.635 109.720 129.817 112.495 C 132.800 116.287 132.644 121.082 129.411 124.923 L 126.822 128.000 102.380 128.000 C 81.559 128.000 77.852 128.223 77.361 129.502 C 75.447 134.490 83.206 143.437 92.443 146.893 C 97.238 148.687 100.273 149.000 112.856 149.000 C 131.177 149.000 136.246 147.721 143.016 141.388 C 149.428 135.391 152.300 128.618 152.319 119.454 C 152.345 106.692 145.408 96.195 134.121 91.917 C 129.092 90.011 127.049 89.836 114.716 90.258 C 100.955 90.729 100.929 90.726 98.966 88.230 C 96.422 84.995 96.394 78.971 98.909 75.861 C 100.745 73.590 101.461 73.481 117.659 72.993 C 134.010 72.500 134.656 72.399 139.870 69.518 C 146.581 65.811 150.239 61.186 150.388 56.224 L 150.500 52.500 124.500 52.320 C 107.837 52.205 97.423 52.531 95.500 53.228 "/></g>
<g fill="#006837FF" stroke="#006837FF">
<path d="M 533.500 53.228 C 518.062 58.820 510.629 76.703 516.908 93.143 C 519.752 100.588 526.765 107.259 534.011 109.411 C 538.181 110.649 541.995 110.841 552.447 110.340 L 565.625 109.708 567.813 112.489 C 570.800 116.287 570.646 121.079 567.411 124.923 L 564.822 128.000 540.380 128.000 C 519.559 128.000 515.852 128.223 515.361 129.502 C 513.447 134.490 521.206 143.437 530.443 146.893 C 535.238 148.687 538.273 149.000 550.856 149.000 C 569.177 149.000 574.246 147.721 581.016 141.388 C 587.428 135.391 590.300 128.618 590.319 119.454 C 590.345 106.692 583.408 96.195 572.121 91.917 C 567.092 90.011 565.049 89.836 552.716 90.258 C 538.955 90.729 538.929 90.726 536.966 88.230 C 534.422 84.995 534.394 78.971 536.909 75.861 C 538.745 73.590 539.461 73.481 555.659 72.993 C 572.010 72.500 572.656 72.399 577.870 69.518 C 584.581 65.811 588.239 61.186 588.388 56.224 L 588.500 52.500 562.500 52.320 C 545.837 52.205 535.423 52.531 533.500 53.228 "/></g>
<g fill="#006837FF" stroke="#006837FF">
<path d="M 854.750 62.038 C 852.261 63.547 852.585 67.589 855.500 71.411 L 858.000 74.689 858.000 104.150 L 858.000 133.611 855.500 137.000 C 852.521 141.037 852.226 145.516 854.847 146.918 C 857.197 148.176 876.859 148.146 879.222 146.881 C 881.813 145.494 881.399 142.026 878.250 138.742 C 875.545 135.921 875.500 135.665 875.500 123.187 L 875.500 110.500 878.711 110.190 C 881.853 109.886 882.028 110.093 886.961 119.921 C 889.732 125.445 891.998 130.759 891.995 131.732 C 891.992 132.704 890.881 135.300 889.526 137.500 C 886.486 142.436 886.341 145.577 889.086 147.046 C 892.392 148.816 917.161 147.500 918.641 145.477 C 920.427 143.034 919.113 139.940 913.934 134.398 C 909.471 129.622 898.919 110.728 899.061 107.768 C 899.095 107.071 900.974 105.150 903.238 103.500 C 913.709 95.868 915.156 79.713 906.252 69.857 C 899.316 62.180 897.013 61.535 875.500 61.239 C 863.408 61.073 855.864 61.363 854.750 62.038 M 887.584 70.404 C 891.388 74.777 893.007 79.942 892.978 87.616 C 892.936 98.786 887.550 105.502 879.190 104.807 L 875.500 104.500 875.226 86.534 C 875.075 76.652 875.196 67.931 875.494 67.154 C 875.893 66.115 877.154 65.889 880.268 66.300 C 883.485 66.724 885.239 67.708 887.584 70.404 "/></g>
<g fill="#006837FF" stroke="#006837FF">
<path d="M 287.272 205.811 C 286.384 206.375 285.968 212.113 285.772 226.542 L 285.500 246.493 281.500 247.996 C 278.121 249.267 269.117 249.500 223.500 249.500 C 170.094 249.500 169.448 249.476 164.772 247.316 L 160.045 245.132 159.772 226.316 L 159.500 207.500 153.500 207.500 L 147.500 207.500 147.000 238.000 C 146.533 266.463 146.363 268.733 144.446 271.997 C 141.699 276.672 136.866 279.769 131.177 280.500 C 124.858 281.312 123.708 282.074 122.253 286.418 C 120.284 292.294 121.770 294.000 128.854 294.000 C 140.988 294.000 151.081 288.721 155.456 280.086 C 156.831 277.374 158.484 271.857 159.130 267.827 C 159.776 263.797 160.397 260.377 160.510 260.226 C 160.623 260.075 163.349 260.637 166.568 261.476 C 171.446 262.746 180.914 262.997 223.460 262.983 C 277.379 262.964 282.289 262.620 292.405 258.145 C 296.099 256.511 297.039 255.521 297.923 252.338 C 299.456 246.819 299.351 207.751 297.800 206.200 C 296.465 204.865 289.185 204.595 287.272 205.811 "/></g>
<g fill="#006837FF" stroke="#006837FF">
<path d="M 411.035 62.934 C 409.478 65.843 409.758 67.089 413.060 71.963 L 416.085 76.427 415.792 104.963 L 415.500 133.500 412.750 137.482 C 409.613 142.024 409.329 144.186 411.571 146.429 C 413.568 148.425 434.862 148.738 436.800 146.800 C 438.706 144.894 438.205 141.195 435.500 137.215 C 433.181 133.803 433.000 132.677 433.000 121.702 C 433.000 110.768 433.871 106.000 435.867 106.000 C 436.306 106.000 438.995 111.801 441.843 118.891 C 447.192 132.209 447.291 133.164 443.837 138.154 C 441.732 141.195 441.448 145.048 443.200 146.800 C 444.029 147.629 449.126 148.000 459.665 148.000 C 474.133 148.000 474.988 147.891 476.050 145.907 C 477.637 142.941 476.502 139.561 472.391 135.011 C 470.101 132.477 465.286 123.361 458.877 109.430 L 448.920 87.788 453.053 82.313 C 455.586 78.958 459.882 75.095 464.150 72.334 C 470.595 68.165 471.091 67.594 470.807 64.665 L 470.500 61.500 460.648 61.213 C 447.220 60.821 445.135 62.668 451.203 69.579 C 454.299 73.104 454.353 73.319 452.827 75.979 C 450.090 80.747 434.723 101.000 433.842 101.000 C 433.379 101.000 433.000 95.213 433.000 88.140 C 433.000 76.071 433.154 75.052 435.500 71.595 C 438.211 67.600 438.696 64.096 436.800 62.200 C 436.003 61.403 431.652 61.000 423.835 61.000 C 413.227 61.000 411.969 61.190 411.035 62.934 "/></g>
<g fill="#006837FF" stroke="#006837FF">
<path d="M 1026.929 61.312 C 1019.010 63.543 1013.434 67.473 1010.972 72.558 C 1009.095 76.434 1008.822 78.335 1009.210 84.822 C 1009.515 89.924 1010.375 93.873 1011.774 96.591 C 1014.434 101.761 1021.754 109.053 1029.500 114.248 C 1036.892 119.206 1042.689 124.593 1044.646 128.323 C 1049.324 137.240 1037.627 145.167 1029.999 138.250 C 1027.389 135.883 1026.841 134.478 1026.065 128.151 C 1024.888 118.563 1022.569 115.774 1016.133 116.204 C 1009.915 116.619 1007.492 119.975 1007.601 128.019 C 1007.716 136.437 1011.029 141.183 1019.587 145.188 C 1025.447 147.930 1026.791 148.172 1034.369 147.852 C 1041.550 147.549 1043.645 147.015 1049.483 144.000 C 1059.091 139.038 1062.345 134.298 1062.837 124.550 C 1063.458 112.257 1059.594 106.128 1043.654 94.122 C 1033.049 86.135 1028.566 81.676 1027.020 77.576 C 1024.060 69.728 1031.904 62.202 1039.055 66.030 C 1041.551 67.365 1043.998 72.147 1044.006 75.700 C 1044.014 80.074 1045.940 85.940 1048.065 88.065 C 1050.639 90.639 1056.138 90.610 1058.491 88.010 C 1059.491 86.905 1060.499 83.866 1060.757 81.176 C 1061.546 72.964 1056.795 66.577 1047.229 62.989 C 1040.240 60.368 1032.540 59.732 1026.929 61.312 "/></g>
<g fill="#FFFFFFFF" stroke="#FFFFFFFF">
<path d="M 1223.000 102.050 L 1223.000 121.121 1249.250 120.723 C 1271.782 120.381 1278.458 119.993 1279.750 118.952 C 1279.888 118.841 1280.338 118.678 1280.750 118.590 C 1281.163 118.501 1282.453 117.898 1283.619 117.250 C 1284.784 116.601 1286.021 116.355 1286.369 116.702 C 1286.716 117.049 1287.000 116.782 1287.000 116.108 C 1287.000 115.434 1287.414 115.138 1287.919 115.450 C 1288.425 115.763 1289.496 115.361 1290.300 114.557 C 1291.104 113.753 1292.040 113.374 1292.381 113.714 C 1292.721 114.055 1293.000 113.808 1293.000 113.167 C 1293.000 112.525 1293.675 112.000 1294.500 112.000 C 1295.325 112.000 1296.000 111.550 1296.000 111.000 C 1296.000 110.450 1296.438 110.000 1296.974 110.000 C 1298.242 110.000 1307.000 101.242 1307.000 99.974 C 1307.000 99.438 1307.477 99.000 1308.059 99.000 C 1308.641 99.000 1308.840 98.550 1308.500 98.000 C 1308.160 97.450 1308.385 97.000 1309.000 97.000 C 1309.615 97.000 1309.859 96.581 1309.543 96.069 C 1309.226 95.557 1309.432 94.851 1310.000 94.500 C 1310.568 94.149 1310.793 93.474 1310.500 93.000 C 1310.207 92.526 1310.425 91.856 1310.984 91.510 C 1312.297 90.698 1312.311 86.000 1311.000 86.000 C 1310.450 86.000 1310.113 85.438 1310.250 84.750 C 1310.446 83.768 1301.106 83.444 1266.750 83.239 L 1223.000 82.979 1223.000 102.050 "/></g>
<g fill="#006837FF" stroke="#006837FF">
<path d="M 709.712 178.622 C 709.320 179.013 709.000 194.053 709.000 212.044 C 709.000 237.000 708.704 244.998 707.750 245.780 C 703.993 248.860 697.205 249.495 668.000 249.497 C 634.902 249.500 633.580 249.257 628.194 242.179 C 625.662 238.852 625.500 238.003 625.500 228.075 L 625.500 217.511 621.190 216.601 C 615.647 215.430 614.369 216.652 612.901 224.529 C 610.239 238.804 613.664 251.742 621.555 257.221 C 629.303 262.602 634.847 263.230 670.384 262.754 C 699.478 262.365 703.251 262.119 710.483 260.144 C 714.874 258.944 719.149 257.281 719.983 256.447 C 721.269 255.162 721.545 249.620 721.798 220.040 C 721.962 200.850 721.710 183.653 721.239 181.825 C 720.428 178.677 720.116 178.484 715.403 178.205 C 712.664 178.043 710.103 178.230 709.712 178.622 "/></g>
<g fill="#006837FF" stroke="#006837FF">
<path d="M 937.200 62.200 C 935.198 64.202 935.841 67.525 939.000 71.500 L 942.000 75.275 942.000 104.500 L 942.000 133.725 939.000 137.500 C 935.638 141.730 935.257 144.114 937.571 146.429 C 938.919 147.776 942.830 148.000 965.036 148.000 C 988.802 148.000 991.008 147.854 991.879 146.227 C 992.401 145.252 993.153 139.177 993.550 132.727 C 994.346 119.797 993.323 117.499 990.524 125.928 C 988.331 132.530 984.004 138.295 979.715 140.331 C 977.457 141.403 973.657 142.000 969.099 142.000 L 962.000 142.000 962.000 123.000 L 962.000 104.000 967.865 104.000 C 974.530 104.000 977.904 105.939 979.986 110.966 C 980.677 112.635 981.526 114.001 981.871 114.002 C 982.217 114.003 982.270 108.041 981.988 100.752 C 981.628 91.413 981.228 88.309 980.633 90.239 C 980.168 91.746 978.220 94.355 976.304 96.038 C 973.231 98.736 972.207 99.063 967.659 98.799 L 962.500 98.500 962.500 82.500 L 962.500 66.500 969.559 66.625 C 980.531 66.820 985.487 70.399 990.058 81.427 C 991.329 84.492 992.793 87.000 993.313 87.000 C 994.491 87.000 993.192 65.232 991.865 62.750 C 991.011 61.151 988.656 61.000 964.665 61.000 C 945.570 61.000 938.072 61.328 937.200 62.200 "/></g>
<g fill="#006837FF" stroke="#006837FF">
<path d="M 795.543 64.250 C 794.798 66.038 788.932 81.427 782.508 98.449 C 771.991 126.313 770.382 129.894 766.364 134.363 C 762.406 138.764 761.935 139.789 762.200 143.413 L 762.500 147.500 770.640 147.789 C 777.066 148.017 779.119 147.738 780.390 146.467 C 782.636 144.221 782.430 142.936 779.018 137.900 C 775.474 132.670 775.343 129.621 778.314 121.500 L 780.508 115.500 791.911 115.500 L 803.315 115.500 805.657 122.445 C 808.631 131.262 808.608 131.802 805.018 137.100 C 801.561 142.202 801.198 145.500 803.934 146.965 C 805.005 147.538 812.157 148.000 819.956 148.000 C 833.819 148.000 834.060 147.962 835.126 145.622 C 836.501 142.605 834.338 137.690 829.626 133.122 C 826.862 130.443 824.252 124.360 813.465 95.464 C 802.924 67.226 800.265 61.000 798.749 61.000 C 797.605 61.000 796.380 62.242 795.543 64.250 M 796.738 96.716 C 799.000 103.159 800.633 108.784 800.367 109.216 C 799.691 110.310 784.244 110.203 783.562 109.100 C 782.914 108.051 790.931 85.000 791.943 85.000 C 792.318 85.000 794.476 90.272 796.738 96.716 "/></g>
<g fill="#006837FF" stroke="#006837FF">
<path d="M 355.500 62.850 C 344.728 67.964 338.566 76.810 335.527 91.525 C 329.272 121.806 342.746 148.107 364.620 148.313 C 376.701 148.427 387.849 140.561 394.117 127.500 C 397.086 121.314 396.788 118.704 393.708 123.917 C 389.952 130.275 378.699 133.706 370.489 130.996 C 357.767 126.798 350.666 108.036 353.945 87.280 C 356.733 69.629 364.956 59.695 373.151 64.081 C 376.048 65.631 378.952 72.710 378.978 78.282 C 379.019 87.277 383.022 92.786 388.514 91.407 C 392.036 90.523 394.000 86.181 394.000 79.282 C 394.000 71.265 390.922 66.824 382.654 62.913 C 373.960 58.800 364.079 58.777 355.500 62.850 "/></g>
<g fill="#006837FF" stroke="#006837FF">
<path d="M 164.555 70.750 C 164.208 76.113 163.696 81.963 163.417 83.750 C 162.545 89.333 165.495 87.649 167.837 81.227 C 170.571 73.729 175.357 68.520 180.877 67.033 C 188.366 65.016 188.142 63.930 187.800 100.593 C 187.505 132.371 187.466 132.900 185.241 135.679 C 181.434 140.434 180.739 142.953 182.496 145.635 C 183.989 147.914 184.504 148.000 196.589 148.000 C 203.487 148.000 210.002 147.534 211.066 146.965 C 213.590 145.614 213.604 140.857 211.091 138.583 C 207.200 135.061 206.959 132.591 207.234 99.000 L 207.500 66.500 210.964 66.783 C 218.057 67.362 223.316 72.489 226.759 82.184 C 229.231 89.143 231.358 88.630 230.627 81.250 C 230.314 78.088 229.774 72.238 229.427 68.250 L 228.797 61.000 196.992 61.000 L 165.187 61.000 164.555 70.750 "/></g>
<g fill="#006837FF" stroke="#006837FF">
<path d="M 694.035 62.934 C 692.426 65.942 692.768 67.433 696.000 71.500 L 699.000 75.275 699.000 99.088 C 699.000 112.450 699.477 125.125 700.086 127.967 C 702.493 139.191 712.206 147.664 723.877 148.723 C 734.624 149.697 742.961 144.159 747.548 133.000 C 749.133 129.143 749.476 124.642 749.949 101.500 L 750.500 74.500 753.250 70.518 C 756.492 65.823 756.605 64.858 754.171 62.655 C 750.503 59.335 740.956 61.271 741.018 65.321 C 741.028 65.970 742.405 68.521 744.079 70.991 L 747.121 75.481 746.811 100.491 C 746.505 125.078 746.456 125.594 743.878 131.091 C 738.004 143.616 726.731 144.906 720.763 133.735 C 718.594 129.677 718.487 128.349 718.193 101.894 L 717.886 74.289 720.443 71.250 C 723.359 67.785 723.888 62.555 721.418 61.607 C 720.548 61.273 714.264 61.000 707.453 61.000 C 696.234 61.000 694.973 61.182 694.035 62.934 "/></g>
<g fill="#006837FF" stroke="#006837FF">
<path d="M 103.501 208.250 C 103.260 208.938 102.937 222.775 102.782 239.000 C 102.517 266.676 102.373 268.716 100.446 271.997 C 97.709 276.655 92.884 279.760 87.177 280.534 C 79.737 281.543 79.108 281.908 77.908 285.913 C 77.039 288.814 77.059 290.241 77.994 291.988 C 79.145 294.139 79.659 294.241 86.875 293.746 C 103.966 292.575 112.204 285.017 114.940 268.000 C 116.456 258.572 116.341 209.741 114.800 208.200 C 113.185 206.585 104.068 206.626 103.501 208.250 "/></g>
<g fill="#006837FF" stroke="#006837FF">
<path d="M 662.000 198.294 C 658.408 200.111 656.634 204.362 657.603 208.835 C 658.701 213.912 658.670 214.500 657.300 214.500 C 655.168 214.500 653.835 216.685 654.172 219.628 L 654.500 222.500 665.723 222.782 L 676.946 223.065 677.620 220.378 C 678.623 216.381 676.929 214.546 671.900 214.180 C 666.903 213.817 664.000 211.718 664.000 208.467 C 664.000 205.457 666.286 203.774 669.866 204.150 C 671.723 204.345 673.613 203.756 674.916 202.576 C 677.712 200.046 677.556 199.389 673.851 198.098 C 669.706 196.653 665.093 196.729 662.000 198.294 "/></g>
<g fill="#006837FF" stroke="#006837FF">
<path d="M 293.073 275.635 C 287.880 282.237 294.031 290.628 302.021 287.843 C 305.503 286.629 307.000 284.344 307.000 280.240 C 307.000 273.508 297.275 270.292 293.073 275.635 "/></g>
<g fill="#006837FF" stroke="#006837FF">
<path d="M 936.923 179.923 C 933.473 183.374 933.201 186.714 936.073 190.365 C 940.412 195.882 950.044 192.464 949.968 185.436 C 949.932 182.105 948.493 179.855 945.316 178.163 C 941.939 176.365 940.094 176.752 936.923 179.923 "/></g>
<g fill="#006837FF" stroke="#006837FF">
<path d="M 270.073 275.635 C 265.623 281.292 268.860 288.000 276.039 288.000 C 281.042 288.000 284.000 285.278 284.000 280.674 C 284.000 273.528 274.449 270.072 270.073 275.635 "/></g>
<g fill="#006837FF" stroke="#006837FF">
<path d="M 104.264 180.250 C 99.119 185.802 102.487 194.000 109.912 194.000 C 110.912 194.000 112.916 193.067 114.365 191.927 C 116.375 190.346 117.000 188.965 117.000 186.102 C 117.000 178.970 108.899 175.248 104.264 180.250 "/></g>
<g fill="#006837FF" stroke="#006837FF">
<path d="M 913.923 179.923 C 910.473 183.374 910.201 186.714 913.073 190.365 C 914.671 192.398 916.027 193.000 919.000 193.000 C 923.397 193.000 927.000 189.527 927.000 185.288 C 927.000 182.262 921.921 177.000 919.000 177.000 C 917.815 177.000 915.531 178.315 913.923 179.923 "/></g>
</svg>
