<?xml version="1.0" encoding="utf-8"?>
<!DOCTYPE svg PUBLIC "-//W3C//DTD SVG 20010904//EN" "http://www.w3.org/TR/2001/REC-SVG-20010904/DTD/svg10.dtd">
<svg version="1.0" xmlns="http://www.w3.org/2000/svg" width="1424pt" height="340pt" viewBox="0 0 1424 340" style="" preserveAspectRatio="xMidYMid meet">
<g fill="#006837FF" stroke="#006837FF">
<path d="M 1216.000 28.668 C 1191.652 32.523 1172.927 39.755 1153.453 52.825 C 1126.002 71.248 1105.253 100.489 1096.548 133.020 C 1095.154 138.226 1093.247 148.753 1092.309 156.412 C 1090.701 169.550 1090.701 171.110 1092.320 183.965 C 1096.066 213.721 1105.117 236.059 1122.526 258.513 C 1141.782 283.349 1172.282 302.188 1205.075 309.500 C 1216.435 312.034 1243.170 312.629 1255.793 310.629 C 1301.096 303.454 1340.726 274.471 1361.256 233.500 C 1381.073 193.953 1381.073 146.047 1361.256 106.500 C 1344.056 72.175 1314.057 46.493 1277.313 34.638 C 1261.909 29.668 1250.406 27.982 1233.000 28.140 C 1225.025 28.213 1217.375 28.450 1216.000 28.668 M 1311.195 85.529 C 1312.113 87.544 1311.999 89.161 1310.634 93.491 C 1307.433 103.648 1296.112 113.331 1281.349 118.541 C 1274.683 120.893 1273.671 120.959 1243.500 121.001 C 1215.459 121.040 1212.109 121.222 1208.401 122.905 C 1198.362 127.465 1195.943 140.781 1203.789 148.297 L 1206.531 150.925 1241.570 151.212 L 1276.609 151.500 1284.199 155.253 C 1303.162 164.628 1315.000 183.246 1315.000 203.694 C 1315.000 225.644 1299.509 246.754 1278.110 253.963 C 1272.449 255.870 1269.648 256.000 1234.188 256.000 C 1199.209 256.000 1195.879 255.851 1190.631 254.045 C 1175.612 248.878 1162.768 238.725 1159.669 229.572 C 1157.595 223.447 1157.576 221.566 1159.571 219.571 C 1160.955 218.188 1166.725 217.999 1207.821 217.994 C 1236.283 217.991 1255.925 217.593 1258.150 216.975 C 1262.836 215.673 1267.753 210.632 1269.056 205.792 C 1270.409 200.768 1268.727 194.573 1264.996 190.842 L 1262.154 188.000 1229.233 188.000 C 1198.892 188.000 1195.857 187.843 1190.486 185.995 C 1174.002 180.324 1162.631 168.588 1156.797 151.226 C 1152.062 137.137 1153.224 125.195 1160.732 110.758 C 1164.656 103.215 1175.163 92.510 1182.244 88.842 C 1193.118 83.209 1193.876 83.148 1254.271 83.071 L 1310.043 83.000 1311.195 85.529 "/></g>
<g fill="#006837FF" stroke="#006837FF">
<path d="M 412.000 190.084 C 406.421 192.613 403.366 195.406 400.884 200.247 C 394.204 213.273 400.604 228.988 414.354 233.322 C 418.875 234.747 421.818 234.946 430.310 234.397 C 440.090 233.764 440.853 233.853 442.862 235.862 C 445.693 238.693 445.710 244.047 442.896 246.595 C 440.975 248.334 438.390 248.558 413.161 249.163 C 397.963 249.528 385.185 249.614 384.764 249.354 C 384.344 249.095 384.000 241.776 384.000 233.090 C 384.000 212.501 383.673 211.597 375.288 209.007 C 349.788 201.131 329.564 210.747 327.364 231.794 C 325.928 245.531 333.371 256.872 346.478 260.921 C 351.184 262.374 355.921 263.000 362.217 263.000 L 371.223 263.000 370.527 266.750 C 369.511 272.229 366.658 276.262 361.907 278.932 C 357.546 281.383 358.130 281.343 336.512 280.658 L 331.523 280.500 330.624 284.731 C 329.428 290.353 330.535 291.497 338.649 293.028 C 351.711 295.493 365.082 292.988 373.617 286.478 C 377.542 283.485 381.891 274.926 382.830 268.350 L 383.522 263.500 412.511 262.931 C 439.763 262.397 449.208 261.481 454.156 258.895 C 455.252 258.323 457.397 258.731 460.489 260.098 C 469.748 264.194 487.028 263.577 496.357 258.818 L 500.263 256.825 505.381 259.663 C 509.940 262.190 511.484 262.500 519.500 262.500 C 527.566 262.500 529.044 262.198 533.747 259.593 C 538.553 256.930 539.142 256.817 540.747 258.252 C 546.876 263.731 562.630 264.373 572.498 259.545 C 581.317 255.230 581.448 254.830 581.824 231.235 C 582.101 213.896 581.912 210.514 580.551 208.438 C 578.817 205.791 574.449 205.154 570.934 207.035 C 569.126 208.003 569.000 209.308 569.000 227.010 L 569.000 245.949 566.250 247.341 C 561.850 249.568 556.485 250.151 551.632 248.929 C 544.597 247.157 544.108 246.132 543.784 232.458 L 543.500 220.500 537.750 220.200 L 532.000 219.900 532.000 233.001 L 532.000 246.102 528.598 247.524 C 522.874 249.915 517.894 250.140 512.500 248.251 L 507.500 246.500 507.000 233.500 L 506.500 220.500 501.533 220.186 C 494.564 219.746 494.000 220.827 494.000 234.611 L 494.000 245.839 488.750 247.632 C 483.032 249.584 469.390 249.941 465.032 248.251 C 462.846 247.404 462.545 246.650 462.391 241.629 C 462.154 233.925 458.304 226.176 452.829 222.382 C 448.792 219.584 448.280 219.496 433.897 219.145 C 420.905 218.828 418.907 218.554 417.391 216.880 C 414.983 214.219 415.206 209.350 417.857 206.694 C 419.885 204.663 421.257 204.463 436.274 204.000 C 451.518 203.530 452.847 203.330 458.226 200.688 C 464.574 197.571 468.000 193.953 468.000 190.365 L 468.000 188.000 442.250 188.022 C 418.496 188.042 416.151 188.202 412.000 190.084 M 367.703 220.186 L 370.500 221.527 370.500 235.513 L 370.500 249.500 364.500 249.830 C 347.641 250.756 338.079 243.056 340.442 230.456 C 341.305 225.857 345.470 221.296 350.500 219.442 C 355.060 217.762 363.397 218.122 367.703 220.186 "/></g>
<g fill="#FFFFFFFF" stroke="#FFFFFFFF">
<path d="M 1221.227 169.209 L 1221.500 187.500 1240.205 187.115 C 1261.877 186.668 1264.945 187.416 1267.809 193.839 C 1269.665 198.001 1270.214 205.642 1268.845 208.253 C 1267.322 211.160 1262.192 215.977 1259.551 216.981 C 1258.136 217.519 1237.038 217.948 1210.385 217.980 C 1164.666 218.037 1158.447 218.297 1159.566 220.107 C 1159.870 220.598 1159.672 221.000 1159.127 221.000 C 1157.983 221.000 1158.285 224.376 1159.753 228.000 C 1160.310 229.375 1160.566 230.838 1160.324 231.250 C 1160.081 231.663 1160.385 232.000 1161.000 232.000 C 1161.615 232.000 1161.869 232.403 1161.565 232.895 C 1161.260 233.388 1161.688 234.050 1162.515 234.367 C 1163.342 234.685 1163.921 235.294 1163.802 235.722 C 1163.499 236.814 1169.560 243.000 1170.933 243.000 C 1171.554 243.000 1172.322 243.675 1172.638 244.500 C 1172.955 245.325 1173.841 246.000 1174.607 246.000 C 1175.373 246.000 1176.000 246.477 1176.000 247.059 C 1176.000 247.641 1176.450 247.840 1177.000 247.500 C 1177.550 247.160 1178.000 247.260 1178.000 247.722 C 1178.000 248.585 1183.909 251.364 1185.250 251.130 C 1185.663 251.059 1186.000 251.477 1186.000 252.059 C 1186.000 252.641 1186.419 252.859 1186.931 252.543 C 1187.443 252.226 1188.149 252.432 1188.500 253.000 C 1188.851 253.568 1189.526 253.793 1190.000 253.500 C 1190.474 253.207 1191.132 253.405 1191.463 253.940 C 1191.794 254.475 1192.725 254.659 1193.532 254.349 C 1194.339 254.040 1195.000 254.278 1195.000 254.880 C 1195.000 256.418 1271.874 256.350 1273.729 254.810 C 1274.455 254.208 1275.334 254.000 1275.682 254.349 C 1276.031 254.697 1276.920 254.481 1277.658 253.869 C 1278.396 253.256 1279.007 253.148 1279.015 253.628 C 1279.024 254.107 1279.361 253.982 1279.765 253.350 C 1280.169 252.717 1281.400 252.042 1282.500 251.850 C 1283.600 251.657 1285.095 250.938 1285.821 250.250 C 1286.548 249.563 1287.786 249.000 1288.571 249.000 C 1289.357 249.000 1290.000 248.550 1290.000 248.000 C 1290.000 247.450 1290.450 247.000 1291.000 247.000 C 1291.550 247.000 1292.857 246.213 1293.905 245.250 C 1294.952 244.288 1297.004 242.671 1298.464 241.658 C 1299.924 240.645 1301.531 238.733 1302.035 237.408 C 1302.538 236.084 1303.412 235.000 1303.975 235.000 C 1304.539 235.000 1305.000 234.325 1305.000 233.500 C 1305.000 232.675 1305.450 232.000 1306.000 232.000 C 1306.550 232.000 1307.000 231.357 1307.000 230.571 C 1307.000 229.786 1307.707 228.436 1308.571 227.571 C 1309.436 226.707 1309.870 226.000 1309.536 226.000 C 1309.203 226.000 1309.492 224.988 1310.179 223.750 C 1310.867 222.513 1311.445 221.200 1311.465 220.833 C 1311.484 220.467 1311.806 219.860 1312.181 219.486 C 1312.556 219.111 1312.620 218.173 1312.324 217.402 C 1312.028 216.631 1312.314 216.000 1312.960 216.000 C 1313.703 216.000 1313.887 215.218 1313.460 213.875 C 1313.050 212.583 1313.171 211.988 1313.768 212.357 C 1314.384 212.738 1314.750 209.433 1314.750 203.482 C 1314.750 198.267 1314.337 194.000 1313.831 194.000 C 1313.326 194.000 1313.004 193.438 1313.117 192.750 C 1313.229 192.063 1312.764 190.150 1312.084 188.500 C 1311.404 186.850 1310.786 184.713 1310.711 183.750 C 1310.636 182.788 1310.194 182.000 1309.728 182.000 C 1309.263 182.000 1309.138 181.586 1309.450 181.081 C 1309.763 180.575 1309.361 179.504 1308.557 178.700 C 1307.753 177.896 1307.374 176.960 1307.714 176.619 C 1308.055 176.279 1307.808 176.000 1307.167 176.000 C 1306.525 176.000 1306.000 175.325 1306.000 174.500 C 1306.000 173.675 1305.550 173.000 1305.000 173.000 C 1304.450 173.000 1304.000 172.571 1304.000 172.048 C 1304.000 170.920 1294.250 161.000 1293.141 161.000 C 1292.721 161.000 1291.505 160.213 1290.439 159.250 C 1288.742 157.719 1281.860 153.978 1279.750 153.441 C 1279.338 153.336 1278.775 153.138 1278.500 153.000 C 1278.225 152.863 1277.588 152.694 1277.083 152.625 C 1276.579 152.556 1275.869 152.202 1275.505 151.839 C 1275.142 151.475 1262.719 151.119 1247.899 151.048 L 1220.955 150.919 1221.227 169.209 "/></g>
<g fill="#006837FF" stroke="#006837FF">
<path d="M 926.476 206.250 C 926.222 206.938 925.899 216.044 925.757 226.487 L 925.500 245.475 922.714 246.809 C 916.921 249.584 906.448 250.042 855.000 249.774 L 802.500 249.500 802.000 231.853 C 801.571 216.718 801.244 213.923 799.702 212.221 C 794.625 206.617 772.068 204.635 762.273 208.933 C 755.950 211.707 749.943 217.964 747.526 224.292 C 745.342 230.011 745.766 242.782 748.302 247.644 C 750.851 252.531 755.969 257.096 761.989 259.852 C 766.464 261.901 769.495 262.453 778.245 262.814 C 790.468 263.317 790.735 263.583 787.095 271.599 C 784.708 276.854 780.374 279.903 773.818 280.940 C 768.912 281.715 757.452 280.878 753.802 279.478 C 751.457 278.577 748.783 283.030 749.181 287.172 C 749.660 292.155 753.132 293.416 766.500 293.462 C 780.542 293.510 786.461 291.634 793.048 285.048 C 797.691 280.404 800.024 275.331 801.462 266.750 L 802.091 263.000 857.795 262.976 C 890.492 262.961 915.359 262.545 918.000 261.968 C 920.475 261.427 924.651 260.004 927.280 258.807 L 932.059 256.630 936.401 258.739 C 947.067 263.922 963.778 264.331 975.105 259.687 L 981.710 256.979 986.605 259.739 C 990.944 262.186 992.522 262.500 1000.500 262.500 C 1008.542 262.500 1010.052 262.194 1014.685 259.626 L 1019.870 256.753 1022.447 258.779 C 1029.000 263.935 1043.879 264.166 1053.828 259.268 C 1062.569 254.965 1062.997 253.589 1062.998 229.750 C 1063.000 211.332 1062.865 209.865 1061.000 208.000 C 1058.818 205.818 1054.974 205.409 1051.934 207.035 C 1050.127 208.002 1050.000 209.307 1050.000 226.921 L 1050.000 245.772 1046.750 247.281 C 1041.048 249.927 1037.330 250.238 1031.530 248.552 C 1025.019 246.659 1025.090 246.839 1024.747 231.500 L 1024.500 220.500 1018.780 220.201 L 1013.060 219.902 1012.780 232.647 L 1012.500 245.392 1009.002 247.433 C 1004.676 249.957 995.938 250.064 991.280 247.649 L 988.060 245.979 987.780 233.240 L 987.500 220.500 982.095 220.192 C 978.447 219.985 976.420 220.310 975.860 221.192 C 975.404 221.912 975.024 227.775 975.015 234.222 L 975.000 245.944 969.429 247.564 C 963.095 249.405 946.438 249.193 941.750 247.212 L 939.000 246.050 939.000 227.747 C 939.000 206.136 938.621 205.000 931.412 205.000 C 928.745 205.000 926.751 205.505 926.476 206.250 M 784.349 219.603 L 789.054 221.206 788.777 235.353 L 788.500 249.500 782.500 249.830 C 769.511 250.544 761.421 246.476 758.866 237.947 C 757.942 234.864 757.958 233.083 758.939 229.811 C 761.879 219.995 772.719 215.641 784.349 219.603 "/></g>
<g fill="#6BA78BFF" stroke="#6BA78BFF">
<path d="M 1195.000 84.583 C 1180.686 88.359 1167.730 98.339 1161.354 110.500 C 1157.814 117.252 1154.000 130.234 1154.000 135.530 C 1154.000 140.392 1157.562 153.208 1160.776 159.911 C 1162.379 163.253 1166.280 168.345 1170.478 172.577 C 1181.791 183.977 1192.152 187.968 1210.500 187.989 L 1221.500 188.002 1221.209 169.721 L 1220.918 151.439 1213.971 151.832 C 1207.179 152.216 1206.948 152.148 1203.602 148.802 C 1192.347 137.547 1200.254 121.000 1216.886 121.000 L 1223.000 121.000 1223.000 102.000 L 1223.000 83.000 1211.750 83.066 C 1205.333 83.103 1198.137 83.755 1195.000 84.583 "/></g>
<g fill="#006837FF" stroke="#006837FF">
<path d="M 627.000 76.582 C 613.080 81.067 605.704 88.623 601.368 102.840 L 598.783 111.314 600.969 118.907 C 605.644 135.149 613.478 142.685 630.698 147.501 C 636.889 149.232 636.905 149.231 645.010 146.617 C 649.472 145.178 653.321 144.000 653.562 144.000 C 653.803 144.000 654.000 150.750 654.000 159.000 L 654.000 174.000 663.500 174.000 L 673.000 174.000 673.000 124.284 L 673.000 74.568 667.622 79.879 L 662.245 85.190 657.940 82.071 C 653.983 79.205 639.347 73.888 635.948 74.083 C 635.152 74.128 631.125 75.253 627.000 76.582 M 646.016 92.852 C 647.932 93.871 650.963 96.606 652.750 98.930 C 655.660 102.713 656.000 103.845 656.000 109.740 C 656.000 114.977 655.483 117.206 653.473 120.636 C 646.073 133.263 626.927 133.263 619.527 120.636 C 615.116 113.110 616.622 101.145 622.644 95.875 C 628.509 90.741 639.395 89.333 646.016 92.852 "/></g>
<g fill="#006837FF" stroke="#006837FF">
<path d="M 533.500 53.228 C 518.062 58.820 510.629 76.703 516.908 93.143 C 519.769 100.632 526.760 107.257 534.105 109.439 C 538.398 110.713 542.045 110.898 552.543 110.371 L 565.630 109.714 567.815 112.492 C 570.800 116.287 570.645 121.080 567.411 124.923 L 564.822 128.000 540.380 128.000 C 519.559 128.000 515.852 128.223 515.361 129.502 C 513.447 134.490 521.206 143.437 530.443 146.893 C 535.238 148.687 538.273 149.000 550.856 149.000 C 569.177 149.000 574.246 147.721 581.016 141.388 C 596.882 126.548 592.008 99.442 572.121 91.921 C 567.132 90.035 564.987 89.845 553.039 90.232 C 540.057 90.654 539.497 90.588 537.289 88.380 C 534.370 85.460 534.180 79.235 536.909 75.861 C 538.745 73.590 539.461 73.481 555.659 72.993 C 572.010 72.500 572.656 72.399 577.870 69.518 C 584.581 65.811 588.239 61.186 588.388 56.224 L 588.500 52.500 562.500 52.320 C 545.837 52.205 535.423 52.531 533.500 53.228 "/></g>
<g fill="#006837FF" stroke="#006837FF">
<path d="M 114.500 53.228 C 99.477 58.670 91.980 75.702 97.457 91.950 C 99.976 99.426 106.556 106.316 113.744 109.005 C 118.747 110.877 120.577 111.010 132.954 110.397 L 146.635 109.720 148.817 112.495 C 151.800 116.287 151.644 121.082 148.411 124.923 L 145.822 128.000 121.380 128.000 C 100.559 128.000 96.852 128.223 96.361 129.502 C 94.447 134.490 102.206 143.437 111.443 146.893 C 116.238 148.687 119.273 149.000 131.856 149.000 C 150.177 149.000 155.246 147.721 162.016 141.388 C 168.428 135.391 171.300 128.618 171.319 119.454 C 171.345 106.692 164.408 96.195 153.121 91.917 C 148.092 90.011 146.049 89.836 133.716 90.258 C 119.955 90.729 119.929 90.726 117.966 88.230 C 115.422 84.995 115.394 78.971 117.909 75.861 C 119.745 73.590 120.461 73.481 136.659 72.993 C 153.010 72.500 153.656 72.399 158.870 69.518 C 165.581 65.811 169.239 61.186 169.388 56.224 L 169.500 52.500 143.500 52.320 C 126.837 52.205 116.423 52.531 114.500 53.228 "/></g>
<g fill="#006837FF" stroke="#006837FF">
<path d="M 800.000 77.000 C 799.175 77.533 797.559 77.976 796.410 77.985 C 792.669 78.012 782.303 83.948 778.174 88.427 C 769.366 97.983 765.950 109.894 768.884 120.828 C 772.814 135.477 781.738 144.037 797.750 148.515 C 803.700 150.180 804.300 150.180 810.250 148.515 C 817.810 146.401 824.825 142.963 827.405 140.108 C 828.453 138.949 829.819 138.000 830.442 138.000 C 831.064 138.000 833.357 140.363 835.537 143.250 L 839.500 148.500 839.763 113.000 L 840.025 77.500 834.881 82.643 L 829.737 87.786 825.432 84.500 C 823.064 82.693 819.186 80.548 816.814 79.734 C 804.871 75.635 802.667 75.276 800.000 77.000 M 811.500 93.866 C 813.700 94.868 817.188 97.559 819.250 99.847 C 822.924 103.921 823.000 104.168 823.000 112.000 C 823.000 119.832 822.924 120.079 819.250 124.153 C 810.758 133.572 799.288 134.392 790.661 126.197 C 786.359 122.111 785.000 118.703 785.000 112.000 C 785.000 105.296 786.359 101.888 790.661 97.805 C 796.686 92.087 804.394 90.629 811.500 93.866 "/></g>
<g fill="#006837FF" stroke="#006837FF">
<path d="M 294.000 76.954 C 293.175 77.512 291.559 77.976 290.410 77.985 C 286.669 78.012 276.303 83.948 272.174 88.427 C 263.366 97.983 259.950 109.894 262.884 120.828 C 266.814 135.477 275.738 144.037 291.750 148.515 C 297.700 150.180 298.300 150.180 304.250 148.515 C 313.715 145.868 319.166 142.693 324.766 136.566 C 328.795 132.157 330.382 129.356 332.424 123.048 C 333.841 118.672 335.000 114.307 335.000 113.347 C 335.000 112.388 333.870 107.898 332.489 103.370 C 330.449 96.682 329.058 94.130 325.078 89.776 C 322.383 86.827 317.983 83.220 315.300 81.760 C 307.770 77.661 296.658 75.154 294.000 76.954 M 305.500 93.866 C 307.700 94.868 311.188 97.559 313.250 99.847 C 316.924 103.921 317.000 104.168 317.000 112.000 C 317.000 119.832 316.924 120.079 313.250 124.153 C 304.758 133.572 293.288 134.392 284.661 126.197 C 280.359 122.111 279.000 118.703 279.000 112.000 C 279.000 105.296 280.359 101.888 284.661 97.805 C 290.686 92.087 298.394 90.629 305.500 93.866 "/></g>
<g fill="#006837FF" stroke="#006837FF">
<path d="M 297.200 206.200 C 296.348 207.052 296.000 213.096 296.000 227.032 L 296.000 246.664 292.250 248.011 C 289.357 249.050 277.145 249.446 238.835 249.745 C 189.610 250.129 181.419 249.745 175.180 246.760 L 172.500 245.477 171.944 226.489 C 171.638 216.045 171.301 207.365 171.194 207.200 C 171.087 207.035 168.413 207.035 165.250 207.200 L 159.500 207.500 159.000 238.000 C 158.569 264.295 158.264 268.932 156.786 271.631 C 153.849 276.995 149.625 279.780 143.260 280.550 C 140.092 280.933 136.973 281.667 136.328 282.181 C 134.508 283.632 133.606 290.820 135.029 292.535 C 136.632 294.467 145.108 294.454 151.655 292.510 C 162.885 289.175 168.938 281.504 171.130 267.827 C 171.776 263.797 172.397 260.377 172.510 260.226 C 172.623 260.075 175.349 260.637 178.568 261.476 C 183.439 262.744 192.912 263.000 235.050 263.000 C 281.922 263.000 286.244 262.856 293.282 261.056 C 304.097 258.290 306.705 256.724 307.948 252.248 C 309.048 248.286 309.428 209.280 308.393 206.582 C 307.652 204.651 299.043 204.357 297.200 206.200 "/></g>
<g fill="#006837FF" stroke="#006837FF">
<path d="M 1006.500 77.868 C 997.925 81.915 993.000 89.923 993.000 99.817 C 993.000 106.550 995.959 112.043 1001.978 116.484 C 1007.054 120.228 1011.069 120.988 1025.816 120.994 C 1033.139 120.997 1040.002 121.466 1041.066 122.035 C 1043.479 123.327 1043.650 128.215 1041.349 130.128 C 1040.079 131.183 1034.301 131.573 1016.349 131.816 C 994.719 132.110 993.000 132.264 993.000 133.919 C 993.000 137.001 997.344 142.318 1002.436 145.469 L 1007.334 148.500 1025.352 148.815 C 1046.426 149.184 1049.492 148.445 1055.949 141.440 C 1061.011 135.948 1062.000 133.445 1062.000 126.131 C 1062.000 118.678 1058.232 112.396 1051.328 108.338 C 1046.676 105.604 1045.934 105.488 1031.000 105.164 C 1013.634 104.787 1011.656 104.095 1012.201 98.590 C 1012.423 96.357 1013.146 95.400 1015.000 94.889 C 1016.375 94.510 1027.513 94.155 1039.750 94.100 L 1062.000 94.000 1062.000 91.648 C 1062.000 88.040 1057.987 82.887 1052.564 79.531 L 1047.666 76.500 1029.083 76.240 C 1012.610 76.010 1010.046 76.195 1006.500 77.868 "/></g>
<g fill="#006837FF" stroke="#006837FF">
<path d="M 424.000 100.500 L 424.000 149.000 433.500 149.000 L 443.000 149.000 443.000 143.419 C 443.000 138.394 443.473 137.152 447.750 130.951 C 450.363 127.163 452.732 124.049 453.015 124.032 C 453.298 124.014 456.171 129.625 459.401 136.500 L 465.272 149.000 475.580 149.000 L 485.887 149.000 476.326 132.250 C 471.067 123.038 465.920 114.101 464.887 112.390 L 463.010 109.281 474.048 93.390 L 485.087 77.500 476.586 77.212 L 468.086 76.923 455.543 93.620 L 443.000 110.317 443.000 81.159 L 443.000 52.000 433.500 52.000 L 424.000 52.000 424.000 100.500 "/></g>
<g fill="#006837FF" stroke="#006837FF">
<path d="M 941.929 79.304 C 932.078 82.097 922.939 89.670 919.023 98.287 C 915.097 106.926 913.567 113.913 914.833 117.416 C 915.475 119.190 916.000 121.285 916.001 122.071 C 916.003 125.258 922.041 135.763 926.134 139.699 C 931.503 144.863 940.216 148.960 947.405 149.702 C 955.387 150.526 965.681 147.712 972.472 142.849 C 980.317 137.230 980.714 136.064 976.202 131.873 C 968.015 124.268 968.550 124.479 964.759 127.371 C 958.635 132.041 948.000 134.967 948.000 131.981 C 948.000 131.420 955.042 122.170 963.649 111.425 L 979.298 91.889 975.525 88.026 C 967.875 80.191 952.698 76.251 941.929 79.304 M 955.856 93.890 C 956.889 94.544 954.627 98.221 946.356 109.331 C 940.385 117.352 935.235 123.933 934.911 123.957 C 932.125 124.160 930.965 108.882 933.411 104.200 C 935.367 100.455 939.843 96.395 944.000 94.594 C 947.879 92.914 953.764 92.564 955.856 93.890 "/></g>
<g fill="#FFFFFFFF" stroke="#FFFFFFFF">
<path d="M 1223.000 102.050 L 1223.000 121.121 1249.250 120.723 C 1271.782 120.381 1278.458 119.993 1279.750 118.952 C 1279.888 118.841 1280.338 118.678 1280.750 118.590 C 1281.163 118.501 1282.453 117.898 1283.619 117.250 C 1284.784 116.601 1286.021 116.355 1286.369 116.702 C 1286.716 117.049 1287.000 116.782 1287.000 116.108 C 1287.000 115.434 1287.414 115.138 1287.919 115.450 C 1288.425 115.763 1289.496 115.361 1290.300 114.557 C 1291.104 113.753 1292.040 113.374 1292.381 113.714 C 1292.721 114.055 1293.000 113.808 1293.000 113.167 C 1293.000 112.525 1293.675 112.000 1294.500 112.000 C 1295.325 112.000 1296.000 111.550 1296.000 111.000 C 1296.000 110.450 1296.438 110.000 1296.974 110.000 C 1298.242 110.000 1307.000 101.242 1307.000 99.974 C 1307.000 99.438 1307.477 99.000 1308.059 99.000 C 1308.641 99.000 1308.840 98.550 1308.500 98.000 C 1308.160 97.450 1308.385 97.000 1309.000 97.000 C 1309.615 97.000 1309.859 96.581 1309.543 96.069 C 1309.226 95.557 1309.432 94.851 1310.000 94.500 C 1310.568 94.149 1310.793 93.474 1310.500 93.000 C 1310.207 92.526 1310.425 91.856 1310.984 91.510 C 1312.297 90.698 1312.311 86.000 1311.000 86.000 C 1310.450 86.000 1310.113 85.438 1310.250 84.750 C 1310.446 83.768 1301.106 83.444 1266.750 83.239 L 1223.000 82.979 1223.000 102.050 "/></g>
<g fill="#006837FF" stroke="#006837FF">
<path d="M 686.000 94.816 C 686.000 115.403 686.976 123.052 690.485 129.960 C 693.362 135.623 700.132 142.401 705.513 145.006 C 718.175 151.136 729.040 149.529 742.627 139.518 C 743.609 138.794 745.283 139.839 748.980 143.480 L 754.000 148.425 754.000 112.212 L 754.000 76.000 745.000 76.000 L 736.000 76.000 735.984 97.750 C 735.968 118.413 735.855 119.695 733.734 123.396 C 727.942 133.498 713.058 133.498 707.266 123.396 C 705.145 119.695 705.032 118.413 705.016 97.750 L 705.000 76.000 695.500 76.000 L 686.000 76.000 686.000 94.816 "/></g>
<g fill="#006837FF" stroke="#006837FF">
<path d="M 189.000 64.500 L 189.000 77.000 185.500 77.000 L 182.000 77.000 182.000 85.000 L 182.000 93.000 185.395 93.000 L 188.790 93.000 189.186 108.750 C 189.557 123.522 189.750 124.824 192.289 129.713 C 197.500 139.747 203.590 144.474 215.336 147.601 C 228.587 151.130 240.704 147.402 248.214 137.485 C 250.291 134.743 251.992 132.163 251.995 131.750 C 251.998 131.338 245.167 131.000 236.816 131.000 C 218.722 131.000 214.667 129.701 210.486 122.566 C 208.192 118.652 208.000 117.345 208.000 105.662 L 208.000 93.000 222.000 93.000 L 236.000 93.000 236.000 85.000 L 236.000 77.000 222.000 77.000 L 208.000 77.000 208.000 64.500 L 208.000 52.000 198.500 52.000 L 189.000 52.000 189.000 64.500 "/></g>
<g fill="#006837FF" stroke="#006837FF">
<path d="M 714.136 179.336 C 713.387 180.239 712.942 191.320 712.764 213.542 L 712.500 246.413 708.000 247.843 C 704.768 248.871 696.151 249.406 677.416 249.742 C 648.567 250.260 641.982 249.539 636.954 245.308 C 631.810 240.979 630.810 237.902 631.161 227.473 C 631.334 222.341 631.196 217.863 630.855 217.522 C 630.514 217.181 628.288 216.812 625.909 216.701 C 619.705 216.413 618.577 219.059 618.533 234.000 C 618.505 243.906 618.798 246.054 620.653 249.500 C 623.467 254.729 626.418 257.392 632.512 260.201 C 637.406 262.457 638.140 262.500 671.500 262.500 C 700.757 262.500 706.572 262.248 713.183 260.697 C 717.408 259.705 722.021 257.985 723.433 256.874 L 726.000 254.855 726.000 218.009 C 726.000 197.744 725.727 180.452 725.393 179.582 C 724.618 177.562 715.769 177.369 714.136 179.336 "/></g>
<g fill="#006837FF" stroke="#006837FF">
<path d="M 372.929 78.304 C 363.078 81.097 353.939 88.670 350.023 97.287 C 346.097 105.926 344.567 112.913 345.833 116.416 C 346.475 118.190 347.000 120.285 347.001 121.071 C 347.003 124.258 353.041 134.763 357.134 138.699 C 362.503 143.863 371.216 147.960 378.405 148.702 C 386.387 149.526 396.681 146.712 403.472 141.849 C 411.317 136.230 411.714 135.064 407.202 130.873 C 399.015 123.268 399.550 123.479 395.759 126.371 C 386.165 133.688 376.481 133.626 368.661 126.197 C 364.359 122.111 363.000 118.703 363.000 112.000 C 363.000 108.645 363.635 104.686 364.411 103.200 C 367.644 97.012 375.663 91.978 382.218 92.022 C 386.686 92.052 393.569 95.327 397.094 99.100 L 400.005 102.217 405.994 98.358 C 409.288 96.236 411.986 94.033 411.991 93.462 C 412.009 91.303 402.270 82.994 396.790 80.495 C 389.903 77.353 379.614 76.408 372.929 78.304 "/></g>
<g fill="#006837FF" stroke="#006837FF">
<path d="M 855.000 113.284 L 855.000 149.000 864.982 149.000 L 874.964 149.000 875.232 125.281 L 875.500 101.562 879.500 99.298 C 882.804 97.427 885.023 97.030 892.250 97.016 L 901.000 97.000 901.000 87.892 L 901.000 78.784 889.750 79.189 C 880.028 79.539 877.812 79.950 873.437 82.219 C 870.653 83.663 867.766 85.578 867.021 86.474 C 865.806 87.939 865.126 87.569 860.334 82.836 L 855.000 77.568 855.000 113.284 "/></g>
<g fill="#006837FF" stroke="#006837FF">
<path d="M 115.625 208.536 C 115.281 209.431 114.990 223.064 114.978 238.832 C 114.958 264.938 114.784 267.878 113.036 271.729 C 110.716 276.841 106.493 279.612 99.608 280.541 C 96.798 280.920 93.765 281.616 92.866 282.088 C 90.701 283.225 89.596 289.377 91.065 292.121 C 92.132 294.115 92.771 294.231 99.858 293.720 C 104.061 293.417 109.198 292.446 111.272 291.562 C 116.925 289.153 122.473 283.620 125.130 277.742 C 127.467 272.573 127.500 272.048 127.500 240.000 L 127.500 207.500 121.875 207.204 C 117.418 206.969 116.120 207.246 115.625 208.536 "/></g>
<g fill="#006837FF" stroke="#006837FF">
<path d="M 667.321 198.189 C 664.243 199.677 662.624 204.238 663.334 209.419 C 663.851 213.195 663.667 213.854 661.966 214.299 C 660.412 214.705 660.000 215.677 660.000 218.939 L 660.000 223.066 671.250 222.783 L 682.500 222.500 682.822 219.690 C 683.272 215.771 681.421 214.000 676.878 214.000 C 673.073 214.000 669.000 211.381 669.000 208.934 C 669.000 205.810 671.234 203.867 674.502 204.149 C 677.594 204.415 682.000 201.980 682.000 200.006 C 682.000 197.465 671.505 196.166 667.321 198.189 "/></g>
<g fill="#006837FF" stroke="#006837FF">
<path d="M 116.455 180.455 C 114.907 182.002 114.000 184.052 114.000 186.000 C 114.000 187.948 114.907 189.998 116.455 191.545 C 118.002 193.093 120.052 194.000 122.000 194.000 C 123.948 194.000 125.998 193.093 127.545 191.545 C 129.093 189.998 130.000 187.948 130.000 186.000 C 130.000 184.052 129.093 182.002 127.545 180.455 C 125.998 178.907 123.948 178.000 122.000 178.000 C 120.052 178.000 118.002 178.907 116.455 180.455 "/></g>
<g fill="#006837FF" stroke="#006837FF">
<path d="M 940.500 178.208 C 935.660 180.983 934.486 186.998 938.039 190.811 C 940.608 193.569 946.960 193.818 949.252 191.250 C 952.171 187.980 951.859 182.768 948.545 179.455 C 945.873 176.782 943.600 176.430 940.500 178.208 "/></g>
<g fill="#006837FF" stroke="#006837FF">
<path d="M 915.923 179.923 C 912.473 183.374 912.201 186.714 915.073 190.365 C 916.657 192.380 918.033 193.000 920.918 193.000 C 925.285 193.000 927.671 190.897 928.605 186.224 C 929.129 183.603 928.729 182.575 926.194 180.040 C 922.382 176.228 919.650 176.197 915.923 179.923 "/></g>
<g fill="#006837FF" stroke="#006837FF">
<path d="M 304.138 274.750 C 300.933 277.441 300.521 282.356 303.246 285.385 C 308.275 290.975 317.000 287.987 317.000 280.674 C 317.000 274.238 309.087 270.594 304.138 274.750 "/></g>
<g fill="#006837FF" stroke="#006837FF">
<path d="M 281.000 275.000 C 278.324 277.676 278.290 284.048 280.939 286.445 C 282.066 287.465 284.457 288.200 286.649 288.200 C 291.268 288.200 294.000 285.297 294.000 280.389 C 294.000 275.907 291.049 273.000 286.500 273.000 C 284.333 273.000 282.238 273.762 281.000 275.000 "/></g>
</svg>
